<svg xmlns="http://www.w3.org/2000/svg" width="48" height="47" fill="none" viewBox="0 0 48 47"><g id="Group"><path id="Vector" stroke="#0078AE" stroke-linecap="square" stroke-miterlimit="10" stroke-width="3" d="M28 11.5H46V45.5H2V11.5H20"/><path id="Vector_2" stroke="#0078AE" stroke-linecap="square" stroke-miterlimit="10" stroke-width="3" d="M28 15.5H20V5.5C20 3.291 21.791 1.5 24 1.5C26.209 1.5 28 3.291 28 5.5V15.5Z"/><path id="Vector_3" stroke="#C41230" stroke-linecap="square" stroke-miterlimit="10" stroke-width="3" d="M30 26.5H39"/><path id="Vector_4" stroke="#C41230" stroke-linecap="square" stroke-miterlimit="10" stroke-width="3" d="M30 34.5H39"/><path id="Vector_5" stroke="#C41230" stroke-linecap="square" stroke-miterlimit="10" stroke-width="3" d="M24 38.5H10C10 35.186 12.686 32.5 16 32.5H18C21.314 32.5 24 35.186 24 38.5Z"/><path id="Vector_6" stroke="#C41230" stroke-linecap="square" stroke-miterlimit="10" stroke-width="3" d="M17 29.5C19.2091 29.5 21 27.7091 21 25.5C21 23.2909 19.2091 21.5 17 21.5C14.7909 21.5 13 23.2909 13 25.5C13 27.7091 14.7909 29.5 17 29.5Z"/></g></svg>